<svg xmlns="http://www.w3.org/2000/svg" version="1.1" xmlns:xlink="http://www.w3.org/1999/xlink" xmlns:svgjs="http://svgjs.dev/svgjs" viewBox="0 0 9.529571557502729 2.040460229377729"><g transform="matrix(1,0,0,1,2.095068921383075,0.4760406615638645)"><rect width="9.529571557502729" height="9.529571557502729" x="-2.095068921383075" y="-4.2205963256263646" fill="#ffffff"></rect><g><path d=" M 0.440185546875 0.2746582031250002 L 0.314208984375 2.220446049250313e-16 L 0.76025390625 2.220446049250313e-16 L 1.29345703125 1.0891113281250002 L 0.815185546875 1.0891113281250002 L 0.734619140625 0.9147949218750002 L 0.305419921875 0.9147949218750002 L 0.2255859375 1.0891113281250002 L 0.040283203125 1.0891113281250002 L 0.440185546875 0.2746582031250002 M 0.65771484375 0.7470703125000002 L 0.52001953125 0.4482421875000002 L 0.383056640625 0.7470703125000002 L 0.65771484375 0.7470703125000002 M 1.4501953125 2.220446049250313e-16 L 1.874267578125 2.220446049250313e-16 L 1.87353515625 0.9206542968750002 L 2.28955078125 0.9206542968750002 L 2.28955078125 1.0883789062500002 L 1.4501953125 1.0883789062500002 L 1.4501953125 2.220446049250313e-16 M 2.470458984375 2.220446049250313e-16 L 2.89453125 2.220446049250313e-16 L 2.893798828125 0.9206542968750002 L 3.309814453125 0.9206542968750002 L 3.309814453125 1.0883789062500002 L 2.470458984375 1.0883789062500002 L 2.470458984375 2.220446049250313e-16 M 3.486328125 2.220446049250313e-16 L 3.90966796875 2.220446049250313e-16 L 3.90966796875 0.6914062500000002 Q 3.90966796875 0.7500000000000002 3.9254150390625 0.7928466796875002 Q 3.941162109375 0.8356933593750002 3.9693603515625 0.8638916015625002 Q 3.99755859375 0.8920898437500002 4.03564453125 0.9060058593750002 Q 4.07373046875 0.9199218750000002 4.11767578125 0.9199218750000002 Q 4.166015625 0.9199218750000002 4.2044677734375 0.9060058593750002 Q 4.242919921875 0.8920898437500002 4.27001953125 0.8635253906250002 Q 4.297119140625 0.8349609375000002 4.311767578125 0.7917480468750002 Q 4.326416015625 0.7485351562500002 4.326416015625 0.6899414062500002 L 4.326416015625 2.220446049250313e-16 L 4.487548828125 2.220446049250313e-16 L 4.487548828125 0.6650390625000002 Q 4.487548828125 0.7661132812500002 4.4549560546875 0.8474121093750002 Q 4.42236328125 0.9287109375000002 4.3623046875 0.9862060546875002 Q 4.30224609375 1.0437011718750002 4.21728515625 1.0744628906250002 Q 4.13232421875 1.1052246093750002 4.027587890625 1.1052246093750002 Q 3.884765625 1.1052246093750002 3.7822265625 1.0748291015625002 Q 3.6796875 1.0444335937500002 3.61376953125 0.9876708984375002 Q 3.5478515625 0.9309082031250002 3.51708984375 0.8503417968750002 Q 3.486328125 0.7697753906250002 3.486328125 0.6687011718750002 L 3.486328125 2.220446049250313e-16 M 4.717529296875 2.220446049250313e-16 L 5.34521484375 2.220446049250313e-16 Q 5.466796875 2.220446049250313e-16 5.5579833984375 0.025634765625000222 Q 5.649169921875 0.05126953125000022 5.7103271484375 0.09741210937500022 Q 5.771484375 0.14355468750000022 5.80224609375 0.20800781250000022 Q 5.8330078125 0.2724609375000002 5.8330078125 0.3500976562500002 Q 5.8330078125 0.4460449218750002 5.78759765625 0.5203857421875002 Q 5.7421875 0.5947265625000002 5.65283203125 0.6386718750000002 L 5.88134765625 1.0891113281250002 L 5.403076171875 1.0891113281250002 L 5.230224609375 0.6936035156250002 L 5.140869140625 0.6936035156250002 L 5.140869140625 1.0883789062500002 L 4.717529296875 1.0883789062500002 L 4.717529296875 2.220446049250313e-16 M 5.16650390625 0.5610351562500002 Q 5.218505859375 0.5610351562500002 5.259521484375 0.5463867187500002 Q 5.300537109375 0.5317382812500002 5.3291015625 0.5050048828125002 Q 5.357666015625 0.4782714843750002 5.373046875 0.4412841796875002 Q 5.388427734375 0.4042968750000002 5.388427734375 0.3603515625000002 Q 5.388427734375 0.3164062500000002 5.373046875 0.2794189453125002 Q 5.357666015625 0.24243164062500022 5.3291015625 0.21569824218750022 Q 5.300537109375 0.18896484375000022 5.259521484375 0.17431640625000022 Q 5.218505859375 0.15966796875000022 5.16650390625 0.15966796875000022 L 5.1416015625 0.15966796875000022 L 5.140869140625 0.5610351562500002 L 5.16650390625 0.5610351562500002 M 6.0908203125 2.220446049250313e-16 L 7.0107421875 2.220446049250313e-16 L 7.0107421875 0.16772460937500022 L 6.514892578125 0.16772460937500022 L 6.51416015625 0.4614257812500002 L 6.8935546875 0.4614257812500002 L 6.8935546875 0.6291503906250002 L 6.51416015625 0.6291503906250002 L 6.51416015625 0.9206542968750002 L 7.0107421875 0.9206542968750002 L 7.0107421875 1.0883789062500002 L 6.0908203125 1.0883789062500002 L 6.0908203125 2.220446049250313e-16" fill="#212245" fill-rule="nonzero"></path></g><g></g><g clip-path="url(#SvgjsClipPath1002)"><g clip-path="url(#SvgjsClipPath10007d9e7671-1b36-4644-843b-73c637bf398d)"><path d=" M -1.0393220402978942 1.1012014041704015 C -0.708651025017731 1.1012014041704015 -0.4405915542226566 0.8312658814927172 -0.4405915542226566 0.4981991884487897 C -0.4405915542226566 0.16513249540486202 -0.708651025017731 -0.10480977566088912 -1.0393220402978942 -0.10480977566088912 C -1.3699930555780575 -0.10480977566088912 -1.6380525263731318 0.16516623734519673 -1.6380525263731318 0.4981991884487897 C -1.6380525263731318 0.8312321395523825 -1.3699863071899905 1.1012014041704015 -1.0393220402978942 1.1012014041704015 Z M -1.0393220402978942 1.121642271625169 C -0.6974419524385401 1.121642271625169 -0.42029915130536155 0.8425154444003098 -0.42029915130536155 0.4981991884487897 C -0.42029915130536155 0.1538829324972695 -0.6974419524385401 -0.12525064311565676 -1.0393220402978942 -0.12525064311565676 C -1.3812021281572484 -0.12525064311565676 -1.6583449292904267 0.1538761841092026 -1.6583449292904267 0.4981991884487897 C -1.6583449292904267 0.8425221927883768 -1.3812156249333822 1.121642271625169 -1.0393220402978942 1.121642271625169 Z" fill="#000000" transform="matrix(1,0,0,1,0,0)" fill-rule="evenodd"></path></g><g clip-path="url(#SvgjsClipPath10007d9e7671-1b36-4644-843b-73c637bf398d)"><path d=" M -1.1306547243958889 1.121642271625169 C -0.7999837091157257 1.121642271625169 -0.5319242383206512 0.8517067489474849 -0.5319242383206512 0.5186400559035573 C -0.5319242383206512 0.18557336285962964 -0.7999837091157255 -0.08436890820612147 -1.1306547243958889 -0.08436890820612147 C -1.461325739676052 -0.08436890820612147 -1.7293784620830595 0.18560710479996437 -1.7293784620830595 0.5186400559035573 C -1.7293784620830595 0.8516730070071503 -1.461318991287985 1.121642271625169 -1.1306547243958889 1.121642271625169 Z M -1.1306547243958889 1.1420831390799366 C -0.7887746365365349 1.1420831390799366 -0.5116250870152893 0.8629563118550773 -0.5116250870152893 0.5186400559035573 C -0.5116250870152893 0.17432379995203717 -0.7887746365365349 -0.10480977566088912 -1.1306547243958889 -0.10480977566088912 C -1.4725348122552426 -0.10480977566088912 -1.749677613388421 0.17431705156397023 -1.749677613388421 0.5186400559035573 C -1.749677613388421 0.8629630602431445 -1.4725280638671758 1.1420966358560707 -1.1306547243958889 1.1420966358560707 Z" fill="#000000" transform="matrix(1,0,0,1,0,0)" fill-rule="evenodd"></path></g><g clip-path="url(#SvgjsClipPath10007d9e7671-1b36-4644-843b-73c637bf398d)"><path d=" M -1.0190228889925323 1.1931886819108892 C -0.6883518737123692 1.1931886819108892 -0.42029915130536155 0.9232126689048035 -0.42029915130536155 0.5901797178012107 C -0.42029915130536155 0.25714676669761777 -0.6883586221004362 -0.012822497920401299 -1.0190228889925323 -0.012822497920401299 C -1.3496871558846288 -0.012822497920401299 -1.61775337506777 0.2571535150856845 -1.61775337506777 0.5901797178012105 C -1.61775337506777 0.9232059205167366 -1.3496939042726956 1.1931886819108892 -1.0190228889925323 1.1931886819108892 Z M -1.0190228889925323 1.2136295493656568 C -0.6771495495212455 1.2136295493656568 -0.3999999999999999 0.9345027221407977 -0.3999999999999999 0.5901797178012105 C -0.3999999999999999 0.2458567134616234 -0.6771495495212453 -0.03327011376323585 -1.0190228889925323 -0.03327011376323585 C -1.3608962284638195 -0.03327011376323585 -1.6380525263731318 0.24586346184969043 -1.6380525263731318 0.5901797178012105 C -1.6380525263731318 0.9344959737527307 -1.3609029768518865 1.2136295493656568 -1.0190228889925323 1.2136295493656568 Z" fill="#000000" transform="matrix(1,0,0,1,0,0)" fill-rule="evenodd"></path></g><path d=" M -1.2120450699611545 0.561560022187106 C -1.2831951854259316 0.6525808906195234 -1.3392819881571747 0.743922255067548 -1.380305478154884 0.8355841155311798 L -1.4851076752584071 0.7384738228022274 C -1.4434431932294836 0.660272794994094 -1.3886383745606687 0.5785463110142824 -1.3206932192519627 0.4932943708627927 L -1.3783825020612415 0.46060377727086815 L -1.2956945300346085 0.3567630682141664 L -1.2331978069912233 0.3913766378997337 C -1.15499677918309 0.3080476738418867 -1.0793597194998135 0.23882053447075222 -1.0062866279413938 0.18369521978633027 L -0.9351365124766166 0.2481149189233582 C -0.9255216320084034 0.20837341298807732 -0.917829727633833 0.1692728990840106 -0.9120607993529051 0.1308133772111581 L -0.7918747935002411 0.23465408626785986 C -0.8296933233418794 0.4269516956321222 -0.9062918710719772 0.6330306336674901 -1.0216704366905347 0.8528909003739634 L -1.1312800740281643 0.752896143504547 C -1.1107683290293096 0.7157186056941229 -1.096025512311383 0.6884764443675191 -1.087051623874384 0.6711696595247355 C -1.1223061855911654 0.6320691456206688 -1.163970667620089 0.595532599841459 -1.2120450699611545 0.561560022187106 M -1.1283956098877004 0.4634882414113321 C -1.0937820402021332 0.4897689146911146 -1.0620529346570298 0.5182930600801469 -1.0332082932523905 0.5490606775784288 C -0.9941077793483237 0.45162988883386923 -0.9652631379436845 0.3660574526667725 -0.9466743690384724 0.29234336907713854 C -1.0030816677853227 0.33657181923091894 -1.0636554147350652 0.39362011000898345 -1.1283956098877004 0.4634882414113321" fill="url(#gradient-a833408b-0773-455c-963d-eb0bd11c825d)" transform="matrix(1,0,0,1,0,0)" fill-rule="nonzero"></path></g></g><defs><clipPath id="SvgjsClipPath1002"><path d=" M -1.749677613388421 -0.13064935356921048 h 1.3496776133884212 v 1.3496776133884212 h -1.3496776133884212 Z"></path></clipPath><clipPath id="SvgjsClipPath10007d9e7671-1b36-4644-843b-73c637bf398d"><path d=" M -1.749677613388421 -0.12525064311565676 L -0.3999999999999999 -0.12525064311565676 L -0.3999999999999999 1.2136295493656568 L -1.749677613388421 1.2136295493656568 Z"></path></clipPath><linearGradient id="gradient-a833408b-0773-455c-963d-eb0bd11c825d" x1="0" x2="1" y1="0" y2="1"><stop stop-color="#d4d6c9" offset="0"></stop><stop stop-color="#343432" offset="1"></stop></linearGradient></defs></svg>